<svg xmlns="http://www.w3.org/2000/svg" viewBox="0 0 1024 1024"><defs>
    <radialGradient id="bg" cx="0.5" cy="0.42" r="0.75"><stop offset="0" stop-color="#1f5a4f"/><stop offset="0.7" stop-color="#123a35"/><stop offset="1" stop-color="#0a2226"/></radialGradient>
    <linearGradient id="wood" x1="0" y1="0" x2="1" y2="1"><stop offset="0" stop-color="#dba264"/><stop offset="0.5" stop-color="#c0823f"/><stop offset="1" stop-color="#9a6230"/></linearGradient>
    <linearGradient id="dish" x1="0" y1="0" x2="1" y2="1"><stop offset="0" stop-color="#c58a4d"/><stop offset="1" stop-color="#8a5226"/></linearGradient>
    <pattern id="grain" width="140" height="22" patternUnits="userSpaceOnUse" patternTransform="rotate(12)">
      <path d="M0 7 Q35 3 70 8 T140 7" fill="none" stroke="#6b3a14" stroke-opacity="0.16" stroke-width="1.4"/>
      <path d="M0 16 Q35 19 70 15 T140 16" fill="none" stroke="#6b3a14" stroke-opacity="0.1" stroke-width="1"/>
    </pattern>
    <radialGradient id="hole" cx="0.42" cy="0.36" r="0.72"><stop offset="0" stop-color="#2a1608"/><stop offset="0.75" stop-color="#4a2c13"/><stop offset="1" stop-color="#7c4e24"/></radialGradient>
    <radialGradient id="m0" cx="0.34" cy="0.3" r="0.78"><stop offset="0" stop-color="#fff"/><stop offset="0.2" stop-color="#ff8a8a"/><stop offset="0.66" stop-color="#e03a3e"/><stop offset="1" stop-color="#8c1116"/></radialGradient><radialGradient id="m1" cx="0.34" cy="0.3" r="0.78"><stop offset="0" stop-color="#fff"/><stop offset="0.2" stop-color="#8cc2ff"/><stop offset="0.66" stop-color="#2f7de1"/><stop offset="1" stop-color="#123f7a"/></radialGradient><radialGradient id="m2" cx="0.34" cy="0.3" r="0.78"><stop offset="0" stop-color="#fff"/><stop offset="0.2" stop-color="#ffe38a"/><stop offset="0.66" stop-color="#f4b400"/><stop offset="1" stop-color="#8a6100"/></radialGradient><radialGradient id="m3" cx="0.34" cy="0.3" r="0.78"><stop offset="0" stop-color="#fff"/><stop offset="0.2" stop-color="#8ee0a8"/><stop offset="0.66" stop-color="#2e9e55"/><stop offset="1" stop-color="#12532a"/></radialGradient>
    <filter id="soft" x="-15%" y="-15%" width="130%" height="130%"><feGaussianBlur stdDeviation="16.83"/></filter>
  </defs><rect width="1024" height="1024" fill="url(#bg)"/><circle cx="790.84" cy="800.45" r="108.17" fill="#000" opacity="0.3"/><circle cx="790.84" cy="790.84" r="108.17" fill="url(#dish)" stroke="#5a3212" stroke-width="5.769014084507042"/><circle cx="790.84" cy="790.84" r="97.11" fill="none" stroke="#e03a3e" stroke-width="9.615023474178404"/><circle cx="737.95" cy="737.95" r="19.23" fill="url(#hole)" /><circle cx="843.72" cy="737.95" r="19.23" fill="url(#hole)" /><circle cx="790.84" cy="790.84" r="19.23" fill="url(#hole)" /><circle cx="737.95" cy="843.72" r="19.23" fill="url(#hole)" /><circle cx="843.72" cy="843.72" r="19.23" fill="url(#hole)" /><circle cx="790.84" cy="242.78" r="108.17" fill="#000" opacity="0.3"/><circle cx="790.84" cy="233.16" r="108.17" fill="url(#dish)" stroke="#5a3212" stroke-width="5.769014084507042"/><circle cx="790.84" cy="233.16" r="97.11" fill="none" stroke="#2f7de1" stroke-width="9.615023474178404"/><circle cx="737.95" cy="286.05" r="19.23" fill="url(#hole)" /><circle cx="737.95" cy="180.28" r="19.23" fill="url(#hole)" /><circle cx="790.84" cy="233.16" r="19.23" fill="url(#hole)" /><circle cx="843.72" cy="286.05" r="19.23" fill="url(#hole)" /><circle cx="843.72" cy="180.28" r="19.23" fill="url(#hole)" /><circle cx="233.16" cy="242.78" r="108.17" fill="#000" opacity="0.3"/><circle cx="233.16" cy="233.16" r="108.17" fill="url(#dish)" stroke="#5a3212" stroke-width="5.769014084507042"/><circle cx="233.16" cy="233.16" r="97.11" fill="none" stroke="#f4b400" stroke-width="9.615023474178404"/><circle cx="286.05" cy="286.05" r="19.23" fill="url(#hole)" /><circle cx="180.28" cy="286.05" r="19.23" fill="url(#hole)" /><circle cx="233.16" cy="233.16" r="19.23" fill="url(#hole)" /><circle cx="286.05" cy="180.28" r="19.23" fill="url(#hole)" /><circle cx="180.28" cy="180.28" r="19.23" fill="url(#hole)" /><circle cx="233.16" cy="800.45" r="108.17" fill="#000" opacity="0.3"/><circle cx="233.16" cy="790.84" r="108.17" fill="url(#dish)" stroke="#5a3212" stroke-width="5.769014084507042"/><circle cx="233.16" cy="790.84" r="97.11" fill="none" stroke="#2e9e55" stroke-width="9.615023474178404"/><circle cx="286.05" cy="737.95" r="19.23" fill="url(#hole)" /><circle cx="286.05" cy="843.72" r="19.23" fill="url(#hole)" /><circle cx="233.16" cy="790.84" r="19.23" fill="url(#hole)" /><circle cx="180.28" cy="737.95" r="19.23" fill="url(#hole)" /><circle cx="180.28" cy="843.72" r="19.23" fill="url(#hole)" /><path d="M379.79,122.59Q379.79,91.34 411.04,91.34L612.96,91.34Q644.21,91.34 644.21,122.59L644.21,348.54Q644.21,379.79 675.46,379.79L901.41,379.79Q932.66,379.79 932.66,411.04L932.66,612.96Q932.66,644.21 901.41,644.21L675.46,644.21Q644.21,644.21 644.21,675.46L644.21,901.41Q644.21,932.66 612.96,932.66L411.04,932.66Q379.79,932.66 379.79,901.41L379.79,675.46Q379.79,644.21 348.54,644.21L122.59,644.21Q91.34,644.21 91.34,612.96L91.34,411.04Q91.34,379.79 122.59,379.79L348.54,379.79Q379.79,379.79 379.79,348.54Z" fill="#000" opacity="0.4" transform="translate(0 13.461032863849766)" filter="url(#soft)"/><path d="M379.79,122.59Q379.79,91.34 411.04,91.34L612.96,91.34Q644.21,91.34 644.21,122.59L644.21,348.54Q644.21,379.79 675.46,379.79L901.41,379.79Q932.66,379.79 932.66,411.04L932.66,612.96Q932.66,644.21 901.41,644.21L675.46,644.21Q644.21,644.21 644.21,675.46L644.21,901.41Q644.21,932.66 612.96,932.66L411.04,932.66Q379.79,932.66 379.79,901.41L379.79,675.46Q379.79,644.21 348.54,644.21L122.59,644.21Q91.34,644.21 91.34,612.96L91.34,411.04Q91.34,379.79 122.59,379.79L348.54,379.79Q379.79,379.79 379.79,348.54Z" fill="url(#wood)"/><path d="M379.79,122.59Q379.79,91.34 411.04,91.34L612.96,91.34Q644.21,91.34 644.21,122.59L644.21,348.54Q644.21,379.79 675.46,379.79L901.41,379.79Q932.66,379.79 932.66,411.04L932.66,612.96Q932.66,644.21 901.41,644.21L675.46,644.21Q644.21,644.21 644.21,675.46L644.21,901.41Q644.21,932.66 612.96,932.66L411.04,932.66Q379.79,932.66 379.79,901.41L379.79,675.46Q379.79,644.21 348.54,644.21L122.59,644.21Q91.34,644.21 91.34,612.96L91.34,411.04Q91.34,379.79 122.59,379.79L348.54,379.79Q379.79,379.79 379.79,348.54Z" fill="url(#grain)"/><path d="M379.79,122.59Q379.79,91.34 411.04,91.34L612.96,91.34Q644.21,91.34 644.21,122.59L644.21,348.54Q644.21,379.79 675.46,379.79L901.41,379.79Q932.66,379.79 932.66,411.04L932.66,612.96Q932.66,644.21 901.41,644.21L675.46,644.21Q644.21,644.21 644.21,675.46L644.21,901.41Q644.21,932.66 612.96,932.66L411.04,932.66Q379.79,932.66 379.79,901.41L379.79,675.46Q379.79,644.21 348.54,644.21L122.59,644.21Q91.34,644.21 91.34,612.96L91.34,411.04Q91.34,379.79 122.59,379.79L348.54,379.79Q379.79,379.79 379.79,348.54Z" fill="none" stroke="#6b3f18" stroke-width="7.692018779342723" stroke-linejoin="round"/><rect x="485.5586854460094" y="629.7840375586854" width="52.882629107981224" height="247.5868544600939" rx="21.633802816901408" fill="#e03a3e" opacity="0.9" transform="rotate(0 512 512)"/><rect x="485.5586854460094" y="629.7840375586854" width="52.882629107981224" height="247.5868544600939" rx="21.633802816901408" fill="#2f7de1" opacity="0.9" transform="rotate(-90 512 512)"/><rect x="485.5586854460094" y="629.7840375586854" width="52.882629107981224" height="247.5868544600939" rx="21.633802816901408" fill="#f4b400" opacity="0.9" transform="rotate(-180 512 512)"/><rect x="485.5586854460094" y="629.7840375586854" width="52.882629107981224" height="247.5868544600939" rx="21.633802816901408" fill="#2e9e55" opacity="0.9" transform="rotate(-270 512 512)"/><circle cx="512.00" cy="896.60" r="17.31" fill="url(#hole)" /><circle cx="560.08" cy="896.60" r="17.31" fill="url(#hole)" /><circle cx="608.15" cy="896.60" r="17.31" fill="url(#hole)" /><circle cx="608.15" cy="848.53" r="17.31" fill="url(#hole)" /><circle cx="608.15" cy="800.45" r="17.31" fill="url(#hole)" /><circle cx="608.15" cy="752.38" r="17.31" fill="url(#hole)" /><circle cx="608.15" cy="704.30" r="17.31" fill="url(#hole)" /><circle cx="608.15" cy="656.23" r="17.31" fill="url(#hole)" /><circle cx="608.15" cy="608.15" r="17.31" fill="url(#hole)" /><circle cx="656.23" cy="608.15" r="17.31" fill="url(#hole)" /><circle cx="704.30" cy="608.15" r="17.31" fill="url(#hole)" /><circle cx="752.38" cy="608.15" r="17.31" fill="url(#hole)" /><circle cx="800.45" cy="608.15" r="17.31" fill="url(#hole)" /><circle cx="848.53" cy="608.15" r="17.31" fill="url(#hole)" /><circle cx="896.60" cy="608.15" r="17.31" fill="url(#hole)" /><circle cx="896.60" cy="560.08" r="17.31" fill="url(#hole)" /><circle cx="896.60" cy="512.00" r="17.31" fill="url(#hole)" /><circle cx="896.60" cy="463.92" r="17.31" fill="url(#hole)" /><circle cx="896.60" cy="415.85" r="17.31" fill="url(#hole)" /><circle cx="848.53" cy="415.85" r="17.31" fill="url(#hole)" /><circle cx="800.45" cy="415.85" r="17.31" fill="url(#hole)" /><circle cx="752.38" cy="415.85" r="17.31" fill="url(#hole)" /><circle cx="704.30" cy="415.85" r="17.31" fill="url(#hole)" /><circle cx="656.23" cy="415.85" r="17.31" fill="url(#hole)" /><circle cx="608.15" cy="415.85" r="17.31" fill="url(#hole)" /><circle cx="608.15" cy="367.77" r="17.31" fill="url(#hole)" /><circle cx="608.15" cy="319.70" r="17.31" fill="url(#hole)" /><circle cx="608.15" cy="271.62" r="17.31" fill="url(#hole)" /><circle cx="608.15" cy="223.55" r="17.31" fill="url(#hole)" /><circle cx="608.15" cy="175.47" r="17.31" fill="url(#hole)" /><circle cx="608.15" cy="127.40" r="17.31" fill="url(#hole)" /><circle cx="560.08" cy="127.40" r="17.31" fill="url(#hole)" /><circle cx="512.00" cy="127.40" r="17.31" fill="url(#hole)" /><circle cx="463.92" cy="127.40" r="17.31" fill="url(#hole)" /><circle cx="415.85" cy="127.40" r="17.31" fill="url(#hole)" /><circle cx="415.85" cy="175.47" r="17.31" fill="url(#hole)" /><circle cx="415.85" cy="223.55" r="17.31" fill="url(#hole)" /><circle cx="415.85" cy="271.62" r="17.31" fill="url(#hole)" /><circle cx="415.85" cy="319.70" r="17.31" fill="url(#hole)" /><circle cx="415.85" cy="367.77" r="17.31" fill="url(#hole)" /><circle cx="415.85" cy="415.85" r="17.31" fill="url(#hole)" /><circle cx="367.77" cy="415.85" r="17.31" fill="url(#hole)" /><circle cx="319.70" cy="415.85" r="17.31" fill="url(#hole)" /><circle cx="271.62" cy="415.85" r="17.31" fill="url(#hole)" /><circle cx="223.55" cy="415.85" r="17.31" fill="url(#hole)" /><circle cx="175.47" cy="415.85" r="17.31" fill="url(#hole)" /><circle cx="127.40" cy="415.85" r="17.31" fill="url(#hole)" /><circle cx="127.40" cy="463.92" r="17.31" fill="url(#hole)" /><circle cx="127.40" cy="512.00" r="17.31" fill="url(#hole)" /><circle cx="127.40" cy="560.08" r="17.31" fill="url(#hole)" /><circle cx="127.40" cy="608.15" r="17.31" fill="url(#hole)" /><circle cx="175.47" cy="608.15" r="17.31" fill="url(#hole)" /><circle cx="223.55" cy="608.15" r="17.31" fill="url(#hole)" /><circle cx="271.62" cy="608.15" r="17.31" fill="url(#hole)" /><circle cx="319.70" cy="608.15" r="17.31" fill="url(#hole)" /><circle cx="367.77" cy="608.15" r="17.31" fill="url(#hole)" /><circle cx="415.85" cy="608.15" r="17.31" fill="url(#hole)" /><circle cx="415.85" cy="656.23" r="17.31" fill="url(#hole)" /><circle cx="415.85" cy="704.30" r="17.31" fill="url(#hole)" /><circle cx="415.85" cy="752.38" r="17.31" fill="url(#hole)" /><circle cx="415.85" cy="800.45" r="17.31" fill="url(#hole)" /><circle cx="415.85" cy="848.53" r="17.31" fill="url(#hole)" /><circle cx="415.85" cy="896.60" r="17.31" fill="url(#hole)" /><circle cx="463.92" cy="896.60" r="17.31" fill="url(#hole)" /><circle cx="512.00" cy="848.53" r="17.31" fill="url(#hole)" /><circle cx="512.00" cy="800.45" r="17.31" fill="url(#hole)" /><circle cx="512.00" cy="752.38" r="17.31" fill="url(#hole)" /><circle cx="512.00" cy="704.30" r="17.31" fill="url(#hole)" /><circle cx="512.00" cy="656.23" r="17.31" fill="url(#hole)" /><circle cx="848.53" cy="512.00" r="17.31" fill="url(#hole)" /><circle cx="800.45" cy="512.00" r="17.31" fill="url(#hole)" /><circle cx="752.38" cy="512.00" r="17.31" fill="url(#hole)" /><circle cx="704.30" cy="512.00" r="17.31" fill="url(#hole)" /><circle cx="656.23" cy="512.00" r="17.31" fill="url(#hole)" /><circle cx="512.00" cy="175.47" r="17.31" fill="url(#hole)" /><circle cx="512.00" cy="223.55" r="17.31" fill="url(#hole)" /><circle cx="512.00" cy="271.62" r="17.31" fill="url(#hole)" /><circle cx="512.00" cy="319.70" r="17.31" fill="url(#hole)" /><circle cx="512.00" cy="367.77" r="17.31" fill="url(#hole)" /><circle cx="175.47" cy="512.00" r="17.31" fill="url(#hole)" /><circle cx="223.55" cy="512.00" r="17.31" fill="url(#hole)" /><circle cx="271.62" cy="512.00" r="17.31" fill="url(#hole)" /><circle cx="319.70" cy="512.00" r="17.31" fill="url(#hole)" /><circle cx="367.77" cy="512.00" r="17.31" fill="url(#hole)" /><circle cx="608.15" cy="896.60" r="24.04" fill="none" stroke="#e03a3e" stroke-width="6.249765258215962"/><circle cx="896.60" cy="415.85" r="24.04" fill="none" stroke="#2f7de1" stroke-width="6.249765258215962"/><circle cx="415.85" cy="127.40" r="24.04" fill="none" stroke="#f4b400" stroke-width="6.249765258215962"/><circle cx="127.40" cy="608.15" r="24.04" fill="none" stroke="#2e9e55" stroke-width="6.249765258215962"/><circle cx="608.15" cy="608.15" r="23.08" fill="none" stroke="#f0c46a" stroke-width="5.288262910798122"/><circle cx="608.15" cy="415.85" r="23.08" fill="none" stroke="#f0c46a" stroke-width="5.288262910798122"/><circle cx="415.85" cy="415.85" r="23.08" fill="none" stroke="#f0c46a" stroke-width="5.288262910798122"/><circle cx="415.85" cy="608.15" r="23.08" fill="none" stroke="#f0c46a" stroke-width="5.288262910798122"/><circle cx="512.00" cy="512.00" r="24.04" fill="url(#hole)" /><circle cx="512.00" cy="512.00" r="29.81" fill="none" stroke="#f0c46a" stroke-width="6.249765258215962"/><circle cx="610.57" cy="758.43" r="20.19" fill="#000" opacity="0.35"/><circle cx="608.15" cy="752.38" r="20.19" fill="url(#m0)" /><ellipse cx="601.69" cy="744.70" rx="6.06" ry="4.04" fill="#fff" opacity="0.8" transform="rotate(-30 601.69 744.70)"/><circle cx="850.95" cy="614.21" r="20.19" fill="#000" opacity="0.35"/><circle cx="848.53" cy="608.15" r="20.19" fill="url(#m0)" /><ellipse cx="842.06" cy="600.48" rx="6.06" ry="4.04" fill="#fff" opacity="0.8" transform="rotate(-30 842.06 600.48)"/><circle cx="740.38" cy="744.01" r="20.19" fill="#000" opacity="0.35"/><circle cx="737.95" cy="737.95" r="20.19" fill="url(#m0)" /><ellipse cx="731.49" cy="730.28" rx="6.06" ry="4.04" fill="#fff" opacity="0.8" transform="rotate(-30 731.49 730.28)"/><circle cx="793.26" cy="796.89" r="20.19" fill="#000" opacity="0.35"/><circle cx="790.84" cy="790.84" r="20.19" fill="url(#m0)" /><ellipse cx="784.37" cy="783.16" rx="6.06" ry="4.04" fill="#fff" opacity="0.8" transform="rotate(-30 784.37 783.16)"/><circle cx="846.14" cy="849.78" r="20.19" fill="#000" opacity="0.35"/><circle cx="843.72" cy="843.72" r="20.19" fill="url(#m0)" /><ellipse cx="837.26" cy="836.05" rx="6.06" ry="4.04" fill="#fff" opacity="0.8" transform="rotate(-30 837.26 836.05)"/><circle cx="610.57" cy="277.68" r="20.19" fill="#000" opacity="0.35"/><circle cx="608.15" cy="271.62" r="20.19" fill="url(#m1)" /><ellipse cx="601.69" cy="263.95" rx="6.06" ry="4.04" fill="#fff" opacity="0.8" transform="rotate(-30 601.69 263.95)"/><circle cx="658.65" cy="518.06" r="20.19" fill="#000" opacity="0.35"/><circle cx="656.23" cy="512.00" r="20.19" fill="url(#m1)" /><ellipse cx="649.76" cy="504.33" rx="6.06" ry="4.04" fill="#fff" opacity="0.8" transform="rotate(-30 649.76 504.33)"/><circle cx="802.87" cy="421.91" r="20.19" fill="#000" opacity="0.35"/><circle cx="800.45" cy="415.85" r="20.19" fill="url(#m1)" /><ellipse cx="793.99" cy="408.18" rx="6.06" ry="4.04" fill="#fff" opacity="0.8" transform="rotate(-30 793.99 408.18)"/><circle cx="740.38" cy="186.34" r="20.19" fill="#000" opacity="0.35"/><circle cx="737.95" cy="180.28" r="20.19" fill="url(#m1)" /><ellipse cx="731.49" cy="172.61" rx="6.06" ry="4.04" fill="#fff" opacity="0.8" transform="rotate(-30 731.49 172.61)"/><circle cx="846.14" cy="292.10" r="20.19" fill="#000" opacity="0.35"/><circle cx="843.72" cy="286.05" r="20.19" fill="url(#m1)" /><ellipse cx="837.26" cy="278.37" rx="6.06" ry="4.04" fill="#fff" opacity="0.8" transform="rotate(-30 837.26 278.37)"/><circle cx="514.42" cy="518.06" r="20.19" fill="#000" opacity="0.35"/><circle cx="512.00" cy="512.00" r="20.19" fill="url(#m2)" /><ellipse cx="505.54" cy="504.33" rx="6.06" ry="4.04" fill="#fff" opacity="0.8" transform="rotate(-30 505.54 504.33)"/><circle cx="225.97" cy="421.91" r="20.19" fill="#000" opacity="0.35"/><circle cx="223.55" cy="415.85" r="20.19" fill="url(#m2)" /><ellipse cx="217.09" cy="408.18" rx="6.06" ry="4.04" fill="#fff" opacity="0.8" transform="rotate(-30 217.09 408.18)"/><circle cx="418.27" cy="229.61" r="20.19" fill="#000" opacity="0.35"/><circle cx="415.85" cy="223.55" r="20.19" fill="url(#m2)" /><ellipse cx="409.39" cy="215.88" rx="6.06" ry="4.04" fill="#fff" opacity="0.8" transform="rotate(-30 409.39 215.88)"/><circle cx="288.47" cy="292.10" r="20.19" fill="#000" opacity="0.35"/><circle cx="286.05" cy="286.05" r="20.19" fill="url(#m2)" /><ellipse cx="279.59" cy="278.37" rx="6.06" ry="4.04" fill="#fff" opacity="0.8" transform="rotate(-30 279.59 278.37)"/><circle cx="182.70" cy="186.34" r="20.19" fill="#000" opacity="0.35"/><circle cx="180.28" cy="180.28" r="20.19" fill="url(#m2)" /><ellipse cx="173.82" cy="172.61" rx="6.06" ry="4.04" fill="#fff" opacity="0.8" transform="rotate(-30 173.82 172.61)"/><circle cx="418.27" cy="710.36" r="20.19" fill="#000" opacity="0.35"/><circle cx="415.85" cy="704.30" r="20.19" fill="url(#m3)" /><ellipse cx="409.39" cy="696.63" rx="6.06" ry="4.04" fill="#fff" opacity="0.8" transform="rotate(-30 409.39 696.63)"/><circle cx="129.82" cy="614.21" r="20.19" fill="#000" opacity="0.35"/><circle cx="127.40" cy="608.15" r="20.19" fill="url(#m3)" /><ellipse cx="120.94" cy="600.48" rx="6.06" ry="4.04" fill="#fff" opacity="0.8" transform="rotate(-30 120.94 600.48)"/><circle cx="370.20" cy="518.06" r="20.19" fill="#000" opacity="0.35"/><circle cx="367.77" cy="512.00" r="20.19" fill="url(#m3)" /><ellipse cx="361.31" cy="504.33" rx="6.06" ry="4.04" fill="#fff" opacity="0.8" transform="rotate(-30 361.31 504.33)"/><circle cx="322.12" cy="518.06" r="20.19" fill="#000" opacity="0.35"/><circle cx="319.70" cy="512.00" r="20.19" fill="url(#m3)" /><ellipse cx="313.24" cy="504.33" rx="6.06" ry="4.04" fill="#fff" opacity="0.8" transform="rotate(-30 313.24 504.33)"/><circle cx="235.59" cy="796.89" r="20.19" fill="#000" opacity="0.35"/><circle cx="233.16" cy="790.84" r="20.19" fill="url(#m3)" /><ellipse cx="226.70" cy="783.16" rx="6.06" ry="4.04" fill="#fff" opacity="0.8" transform="rotate(-30 226.70 783.16)"/></svg>